<svg xmlns="http://www.w3.org/2000/svg" width="63.953" height="60.831" viewBox="0 0 63.953 60.831">
  <defs>
    <style>
      .cls-1 {
        fill: #17181a;
        fill-rule: evenodd;
      }
    </style>
  </defs>
  <g id="Camada_x0020_1" transform="translate(6.109 -7.042)">
    <path id="Caminho_3" data-name="Caminho 3" class="cls-1" d="M19.38,44.719A17.338,17.338,0,0,1,14.6,34.306a21.759,21.759,0,0,1-.069-3.084,19.085,19.085,0,0,1,1.447-6.071,21.232,21.232,0,0,1,1.665-2.978,19.106,19.106,0,0,1,9.711-7.059,19.754,19.754,0,0,1,7.949-.472A17.868,17.868,0,0,1,50.469,33.51,17.18,17.18,0,0,1,44.475,45.9a16.974,16.974,0,0,1-9.684,4.39,21.542,21.542,0,0,1-6.229-.308,17.075,17.075,0,0,1-9.181-5.266ZM16.868,12.446c-3.305,2.924-4.371,3.839-6.61,7.691a24.505,24.505,0,0,0-2.279,5.844A24.584,24.584,0,0,0,10.05,44.147a21.777,21.777,0,0,0,1.229,2.1L5.79,51.1.523,45.148c-.3-.34-.915-.517-1.217-.25l-4.373,3.868a.955.955,0,0,0-.064,1.052L.3,55.958l-6.047,5.35a.934.934,0,0,0-.086,1.4l3.7,4.186a.955.955,0,0,0,1.052.064l6.233-5.514,5.514,6.233a.955.955,0,0,0,1.052.064L16.1,63.877c.3-.267.2-.9-.1-1.238l-5.35-6.047,5.489-4.856c2.832,2.71,7.941,4.938,11.8,5.65l2.008.263a7.272,7.272,0,0,0,2.1.119,25.443,25.443,0,0,0,8.165-1.128A25.9,25.9,0,0,0,55.829,42.55a25.255,25.255,0,0,0,1.361-4.317,26.516,26.516,0,0,0-1.122-15.38A25.866,25.866,0,0,0,38.8,7.805l-3.135-.544a27.613,27.613,0,0,0-9.8.6,24.3,24.3,0,0,0-8.992,4.583Z" transform="translate(0 0)"/>
  </g>
</svg>
