<svg xmlns="http://www.w3.org/2000/svg" width="64.686" height="64.554" viewBox="0 0 64.686 64.554">
  <defs>
    <style>
      .cls-1 {
        fill: #fefefe;
        fill-rule: evenodd;
      }
    </style>
  </defs>
  <g id="Camada_x0020_1" transform="translate(6.11 -7.03)">
    <path id="Caminho_2" data-name="Caminho 2" class="cls-1" d="M21.217,63.8a18.935,18.935,0,0,1-8.231-1.67,16.181,16.181,0,0,1-4.807-3.246c-.278-.247-.378-.267-.662-.527a21.518,21.518,0,0,1-3.859-5.382A19.725,19.725,0,0,1,3.57,36.38a18.638,18.638,0,0,1,1.7-2.79,10.734,10.734,0,0,1,1-1.246,20.054,20.054,0,0,1,6.413-5.072,19.518,19.518,0,0,1,19.4,1.766,20.93,20.93,0,0,1,2.5,2.25,16.648,16.648,0,0,1,2.133,2.487,19.086,19.086,0,0,1,.023,21.649C33.1,60.441,27.733,63.8,21.217,63.8ZM38.642,8.218v5.413a1.193,1.193,0,0,0,.708,1.141l5.761.048-8.085,8.153c-.459-.3-.905-.652-1.445-1a27.334,27.334,0,0,0-21.174-3.535C6.893,20.08-1,26.831-3.753,33.546a22.935,22.935,0,0,0-1.673,4.928,27.6,27.6,0,0,0-.684,6.048A27.034,27.034,0,0,0,20.821,71.584a25.348,25.348,0,0,0,8.862-1.435c10.3-3.419,18.2-13.871,18.2-24.835,0-7.539-1.585-11.247-5.281-16.766l8.152-8.218.028,5.582a.959.959,0,0,0,1.061.919H57.52c.787,0,1.056-.533,1.056-1.32V8.35c0-.787-.269-1.32-1.056-1.32H39.7a1.077,1.077,0,0,0-1.056,1.188Z"/>
  </g>
</svg>
