<svg xmlns="http://www.w3.org/2000/svg" width="27.613" height="21.621" viewBox="0 0 27.613 21.621">
  <g id="Camada_x0020_1" transform="translate(1.13 -6.13)">
    <path id="Caminho_1" data-name="Caminho 1" d="M-5.731,6.13H21.084a.392.392,0,0,1,.4.382V9.036a.392.392,0,0,1-.4.382H-5.731a.392.392,0,0,1-.4-.382V6.512a.392.392,0,0,1,.4-.382Zm0,18.333H8.907a.392.392,0,0,1,.4.382v2.524a.392.392,0,0,1-.4.382H-5.731a.392.392,0,0,1-.4-.382V24.845a.392.392,0,0,1,.4-.382Zm0-9.619H14.91a.392.392,0,0,1,.4.382V17.75a.392.392,0,0,1-.4.382H-5.731a.392.392,0,0,1-.4-.382V15.226a.392.392,0,0,1,.4-.382Z" transform="translate(5 0)" fill="#fefefe" fill-rule="evenodd"/>
  </g>
</svg>
